<svg xmlns="http://www.w3.org/2000/svg" xmlns:xlink="http://www.w3.org/1999/xlink" preserveAspectRatio="xMidYMid" width="32" height="32" viewBox="0 0 32 32">
  <defs>
    <style>
      .cls-1 {
        fill: #000;
        fill-rule: evenodd;
      }
    </style>
  </defs>
  <path d="M28.875,6.250 C27.478,6.250 26.293,5.329 25.894,4.062 L22.625,4.062 L22.625,10.125 L30.062,10.125 L30.062,16.375 L31.937,16.375 L31.937,25.750 L30.062,25.750 L30.062,32.000 L1.937,32.000 L1.937,10.125 L9.375,10.125 L9.375,8.162 L5.019,5.608 C4.493,6.010 3.837,6.250 3.125,6.250 C1.402,6.250 -0.000,4.848 -0.000,3.125 C-0.000,1.402 1.402,-0.000 3.125,-0.000 C4.848,-0.000 6.250,1.402 6.250,3.125 C6.250,3.454 6.198,3.772 6.103,4.071 L11.250,7.088 L11.250,10.125 L15.062,10.125 L15.062,6.106 C13.796,5.707 12.875,4.522 12.875,3.125 C12.875,1.402 14.277,-0.000 16.000,-0.000 C17.723,-0.000 19.125,1.402 19.125,3.125 C19.125,4.522 18.204,5.707 16.937,6.106 L16.937,10.125 L20.750,10.125 L20.750,2.187 L25.894,2.187 C26.293,0.921 27.478,-0.000 28.875,-0.000 C30.598,-0.000 32.000,1.402 32.000,3.125 C32.000,4.848 30.598,6.250 28.875,6.250 ZM3.125,1.875 C2.436,1.875 1.875,2.436 1.875,3.125 C1.875,3.814 2.436,4.375 3.125,4.375 C3.814,4.375 4.375,3.814 4.375,3.125 C4.375,2.436 3.814,1.875 3.125,1.875 ZM30.062,18.250 L21.625,18.250 C20.074,18.250 18.812,19.512 18.812,21.062 C18.812,22.613 20.074,23.875 21.625,23.875 L30.062,23.875 L30.062,18.250 ZM17.250,3.125 C17.250,2.436 16.689,1.875 16.000,1.875 C15.311,1.875 14.750,2.436 14.750,3.125 C14.750,3.814 15.311,4.375 16.000,4.375 C16.689,4.375 17.250,3.814 17.250,3.125 ZM3.812,12.000 L3.812,30.125 L28.187,30.125 L28.187,25.750 L21.625,25.750 C19.040,25.750 16.937,23.647 16.937,21.062 C16.937,18.478 19.040,16.375 21.625,16.375 L28.187,16.375 L28.187,12.000 L3.812,12.000 ZM28.875,1.875 C28.186,1.875 27.625,2.436 27.625,3.125 C27.625,3.814 28.186,4.375 28.875,4.375 C29.564,4.375 30.125,3.814 30.125,3.125 C30.125,2.436 29.564,1.875 28.875,1.875 ZM20.687,21.062 C20.687,20.545 21.107,20.125 21.625,20.125 C22.143,20.125 22.562,20.545 22.562,21.062 C22.562,21.580 22.143,22.000 21.625,22.000 C21.107,22.000 20.687,21.580 20.687,21.062 Z" class="cls-1"/>
</svg>
