<svg xmlns="http://www.w3.org/2000/svg" xmlns:xlink="http://www.w3.org/1999/xlink" preserveAspectRatio="xMidYMid" width="32" height="32" viewBox="0 0 32 32">
  <defs>
    <style>
      .cls-1 {
        fill: #000;
        fill-rule: evenodd;
      }
    </style>
  </defs>
  <path d="M25.439,16.937 L25.439,16.000 C25.439,10.783 21.216,6.561 16.000,6.561 C14.078,6.561 12.271,7.115 10.718,8.173 L12.468,9.922 L2.362,11.656 L4.096,1.550 L6.030,3.485 C8.853,1.232 12.359,-0.000 16.000,-0.000 C24.844,-0.000 32.000,7.157 32.000,16.000 L32.000,16.937 L25.439,16.937 ZM16.000,1.875 C9.735,1.875 6.271,5.838 5.941,6.047 L5.331,5.438 L4.658,9.360 L8.581,8.687 L7.915,8.022 C8.322,7.771 11.043,4.686 16.000,4.686 C21.947,4.686 26.803,9.262 27.276,15.062 L30.095,15.062 C29.622,7.793 23.583,1.875 16.000,1.875 ZM6.561,16.000 C6.561,21.217 10.783,25.439 16.000,25.439 C17.899,25.439 19.747,24.867 21.299,23.812 L19.565,22.078 L29.670,20.344 L27.936,30.449 L25.988,28.501 C23.162,30.763 19.649,32.000 16.000,32.000 C7.156,32.000 -0.000,24.842 -0.000,16.000 L-0.000,15.062 L6.561,15.062 L6.561,16.000 ZM1.905,16.937 C2.378,24.207 8.417,30.125 16.000,30.125 C22.280,30.125 25.747,26.146 26.076,25.937 L26.701,26.562 L27.374,22.640 L23.452,23.313 L24.100,23.961 C23.713,24.201 20.976,27.314 16.000,27.314 C10.052,27.314 5.197,22.737 4.724,16.937 L1.905,16.937 Z" class="cls-1"/>
</svg>
