<svg xmlns="http://www.w3.org/2000/svg" xmlns:xlink="http://www.w3.org/1999/xlink" preserveAspectRatio="xMidYMid" width="32" height="32" viewBox="0 0 32 32">
  <defs>
    <style>
      .cls-1 {
        fill: #000;
        fill-rule: evenodd;
      }
    </style>
  </defs>
  <path d="M26.151,28.250 L32.000,28.250 L32.000,30.125 L26.151,30.125 C25.764,31.216 24.722,32.000 23.500,32.000 C22.278,32.000 21.236,31.216 20.849,30.125 L18.651,30.125 C18.264,31.216 17.222,32.000 16.000,32.000 C14.778,32.000 13.736,31.216 13.349,30.125 L11.151,30.125 C10.764,31.216 9.722,32.000 8.500,32.000 C7.278,32.000 6.236,31.216 5.849,30.125 L-0.000,30.125 L-0.000,28.250 L5.849,28.250 C6.131,27.452 6.765,26.819 7.562,26.536 L7.562,21.250 L5.687,21.250 L5.687,-0.000 L26.312,-0.000 L26.312,21.250 L24.437,21.250 L24.437,26.536 C25.235,26.819 25.868,27.452 26.151,28.250 ZM18.651,28.250 L20.849,28.250 C21.132,27.452 21.765,26.819 22.562,26.536 L22.562,21.250 L16.937,21.250 L16.937,26.536 C17.735,26.819 18.368,27.452 18.651,28.250 ZM16.000,30.125 C16.517,30.125 16.937,29.704 16.937,29.187 C16.937,28.671 16.517,28.250 16.000,28.250 C15.483,28.250 15.062,28.671 15.062,29.187 C15.062,29.704 15.483,30.125 16.000,30.125 ZM11.151,28.250 L13.349,28.250 C13.632,27.452 14.265,26.819 15.062,26.536 L15.062,21.250 L9.437,21.250 L9.437,26.536 C10.235,26.819 10.868,27.452 11.151,28.250 ZM8.500,30.125 C9.017,30.125 9.437,29.704 9.437,29.187 C9.437,28.671 9.017,28.250 8.500,28.250 C7.983,28.250 7.562,28.671 7.562,29.187 C7.562,29.704 7.983,30.125 8.500,30.125 ZM24.437,1.875 L7.562,1.875 L7.562,19.375 L24.437,19.375 L24.437,1.875 ZM23.500,28.250 C22.983,28.250 22.562,28.671 22.562,29.187 C22.562,29.704 22.983,30.125 23.500,30.125 C24.017,30.125 24.437,29.704 24.437,29.187 C24.437,28.671 24.017,28.250 23.500,28.250 ZM10.375,3.750 C10.893,3.750 11.312,4.170 11.312,4.687 C11.312,5.205 10.893,5.625 10.375,5.625 C9.857,5.625 9.437,5.205 9.437,4.687 C9.437,4.170 9.857,3.750 10.375,3.750 ZM14.125,3.750 C14.643,3.750 15.062,4.170 15.062,4.687 C15.062,5.205 14.643,5.625 14.125,5.625 C13.607,5.625 13.187,5.205 13.187,4.687 C13.187,4.170 13.607,3.750 14.125,3.750 ZM22.562,5.625 L16.937,5.625 L16.937,3.750 L22.562,3.750 L22.562,5.625 ZM22.562,9.375 L16.937,9.375 L16.937,7.500 L22.562,7.500 L22.562,9.375 ZM22.562,13.125 L16.937,13.125 L16.937,11.250 L22.562,11.250 L22.562,13.125 Z" class="cls-1"/>
</svg>
